<svg width="26" height="26" viewBox="0 0 26 26" fill="none" xmlns="http://www.w3.org/2000/svg">
<path d="M7.58333 24.9167L10.6167 9.64167L8.66667 10.4V14.0833H6.5V8.99167L11.9708 6.6625C12.2236 6.55417 12.4899 6.49097 12.7698 6.47292C13.0497 6.45486 13.316 6.49097 13.5687 6.58125C13.8215 6.67153 14.0608 6.79792 14.2865 6.96042C14.5122 7.12292 14.6972 7.33056 14.8417 7.58333L15.925 9.31667C16.3944 10.075 17.0309 10.6979 17.8344 11.1854C18.6378 11.6729 19.5542 11.9167 20.5833 11.9167V14.0833C19.3194 14.0833 18.191 13.8215 17.1979 13.2979C16.2049 12.7743 15.3562 12.1062 14.6521 11.2937L13.975 14.625L16.25 16.7917V24.9167H14.0833V17.875L11.8083 16.1417L9.85833 24.9167H7.58333ZM14.625 5.95833C14.0292 5.95833 13.5191 5.74618 13.0948 5.32187C12.6705 4.89757 12.4583 4.3875 12.4583 3.79167C12.4583 3.19583 12.6705 2.68576 13.0948 2.26146C13.5191 1.83715 14.0292 1.625 14.625 1.625C15.2208 1.625 15.7309 1.83715 16.1552 2.26146C16.5795 2.68576 16.7917 3.19583 16.7917 3.79167C16.7917 4.3875 16.5795 4.89757 16.1552 5.32187C15.7309 5.74618 15.2208 5.95833 14.625 5.95833Z" fill="currentColor"/>
</svg>
