<svg width="28" height="28" viewBox="0 0 28 28" fill="none" xmlns="http://www.w3.org/2000/svg">
<path d="M13.9998 14.0007C14.6415 14.0007 15.1908 13.7722 15.6478 13.3152C16.1047 12.8583 16.3332 12.309 16.3332 11.6673C16.3332 11.0257 16.1047 10.4763 15.6478 10.0194C15.1908 9.56246 14.6415 9.33398 13.9998 9.33398C13.3582 9.33398 12.8089 9.56246 12.3519 10.0194C11.895 10.4763 11.6665 11.0257 11.6665 11.6673C11.6665 12.309 11.895 12.8583 12.3519 13.3152C12.8089 13.7722 13.3582 14.0007 13.9998 14.0007ZM13.9998 22.5757C16.3721 20.3979 18.1318 18.4194 19.279 16.6402C20.4262 14.8611 20.9998 13.2812 20.9998 11.9007C20.9998 9.78121 20.3241 8.04579 18.9728 6.6944C17.6214 5.34301 15.9637 4.66732 13.9998 4.66732C12.0359 4.66732 10.3783 5.34301 9.02692 6.6944C7.67553 8.04579 6.99984 9.78121 6.99984 11.9007C6.99984 13.2812 7.57345 14.8611 8.72067 16.6402C9.86789 18.4194 11.6276 20.3979 13.9998 22.5757ZM13.9998 25.6673C10.8693 23.0034 8.53109 20.5291 6.98525 18.2444C5.43942 15.9597 4.6665 13.8451 4.6665 11.9007C4.6665 8.98398 5.6047 6.66037 7.48109 4.92982C9.35748 3.19926 11.5304 2.33398 13.9998 2.33398C16.4693 2.33398 18.6422 3.19926 20.5186 4.92982C22.395 6.66037 23.3332 8.98398 23.3332 11.9007C23.3332 13.8451 22.5603 15.9597 21.0144 18.2444C19.4686 20.5291 17.1304 23.0034 13.9998 25.6673Z" fill="currentColor"/>
</svg>
