<svg width="33" height="33" viewBox="0 0 33 33" fill="none" xmlns="http://www.w3.org/2000/svg">
<path d="M16.5 16.5C14.9875 16.5 13.6927 15.9615 12.6156 14.8844C11.5385 13.8073 11 12.5125 11 11C11 9.4875 11.5385 8.19271 12.6156 7.11563C13.6927 6.03854 14.9875 5.5 16.5 5.5C18.0125 5.5 19.3073 6.03854 20.3844 7.11563C21.4615 8.19271 22 9.4875 22 11C22 12.5125 21.4615 13.8073 20.3844 14.8844C19.3073 15.9615 18.0125 16.5 16.5 16.5ZM5.5 27.5V23.65C5.5 22.8708 5.70052 22.1547 6.10156 21.5016C6.5026 20.8484 7.03542 20.35 7.7 20.0063C9.12083 19.2958 10.5646 18.763 12.0312 18.4078C13.4979 18.0526 14.9875 17.875 16.5 17.875C18.0125 17.875 19.5021 18.0526 20.9688 18.4078C22.4354 18.763 23.8792 19.2958 25.3 20.0063C25.9646 20.35 26.4974 20.8484 26.8984 21.5016C27.2995 22.1547 27.5 22.8708 27.5 23.65V27.5H5.5ZM8.25 24.75H24.75V23.65C24.75 23.3979 24.687 23.1687 24.5609 22.9625C24.4349 22.7562 24.2688 22.5958 24.0625 22.4813C22.825 21.8625 21.576 21.3984 20.3156 21.0891C19.0552 20.7797 17.7833 20.625 16.5 20.625C15.2167 20.625 13.9448 20.7797 12.6844 21.0891C11.424 21.3984 10.175 21.8625 8.9375 22.4813C8.73125 22.5958 8.5651 22.7562 8.43906 22.9625C8.31302 23.1687 8.25 23.3979 8.25 23.65V24.75ZM16.5 13.75C17.2563 13.75 17.9036 13.4807 18.4422 12.9422C18.9807 12.4036 19.25 11.7563 19.25 11C19.25 10.2437 18.9807 9.59635 18.4422 9.05781C17.9036 8.51927 17.2563 8.25 16.5 8.25C15.7437 8.25 15.0964 8.51927 14.5578 9.05781C14.0193 9.59635 13.75 10.2437 13.75 11C13.75 11.7563 14.0193 12.4036 14.5578 12.9422C15.0964 13.4807 15.7437 13.75 16.5 13.75Z" fill="currentColor"/>
</svg>
